<?xml version="1.0" encoding="utf-8"?>
<!-- Generator: Adobe Illustrator 19.2.1, SVG Export Plug-In . SVG Version: 6.00 Build 0)  -->
<svg version="1.1" id="Layer_1" xmlns="http://www.w3.org/2000/svg" xmlns:xlink="http://www.w3.org/1999/xlink" x="0px" y="0px"
	 viewBox="0 0 666 190" style="enable-background:new 0 0 666 190;" xml:space="preserve">
<style type="text/css">
	.st0{fill:none;stroke:#B3B3B3;stroke-width:1.5;stroke-linecap:round;stroke-linejoin:round;}
	.st1{fill:none;stroke:#B3B3B3;stroke-width:1.125;stroke-linecap:round;stroke-linejoin:round;}
	.st2{fill:#B3B3B3;}
	.st3{fill:none;stroke:#B3B3B3;stroke-width:1.125;stroke-linecap:round;stroke-miterlimit:10;}
	.st4{fill:none;stroke:#B3B3B3;stroke-width:1.125;stroke-miterlimit:10;}
	.st5{fill:none;stroke:#B3B3B3;stroke-width:0.375;stroke-linecap:round;stroke-linejoin:round;}
	.st6{fill:none;stroke:#B3B3B3;stroke-width:0.375;stroke-linejoin:round;}
	.st7{fill:none;stroke:#B3B3B3;stroke-width:0.125;stroke-miterlimit:10;}
	.st8{fill:none;stroke:#B3B3B3;stroke-width:0.375;stroke-miterlimit:10;}
	.st9{fill:none;stroke:#B3B3B3;stroke-width:0.375;stroke-linecap:round;stroke-miterlimit:10;}
	.st10{fill:none;stroke:#E6E6E6;stroke-width:1.125;stroke-miterlimit:10;}
	.st11{fill:#E6E6E6;}
</style>
<g>
	<g id="_12pt-2_2_">
		<path class="st0" d="M532.2,143.6c9.6-0.4,24.8-1,27.4-1.3c3.8-0.4,7-0.8,8-0.9c0.6,0,0.6-0.6,0.6-1s0-0.5-0.1-0.5
			c-0.9-0.3-4.5-1.1-4.5-1.1l1.2-2.3c0,0,7.6-1.8,11.5-3.2s5.2-2.2,5.2-2.2s5.7-0.6,6.6-0.9s2.9-2.8,4.6-5c1.4-1.8,3.6-5.1,3.8-6.3
			c0-0.2-0.6-0.7-0.7-0.7c-0.5-0.1-5.2-0.6-5.2-0.6l3.7-6.3c0,0,1,0,2.1-0.1c1.1-0.1,1.5-1.2,1.6-1.5s-2.4-1.4-2.3-2.1
			s2.2-12.1,2.3-13.4c0-0.4,0.1-0.8,0.1-1.1c-0.1-0.6-0.4-0.8-0.4-0.8s0.5-0.1,0.5-0.4c0.1-0.7,0.1-2.1-0.1-2.3
			c-1.6-2.3-3.2-4.3-4.2-5.2c-0.1-0.1-0.3-0.2-0.5-0.2c0,0-5.2-16.7-5.4-17.2s2.1-7.5,2.1-7.5s3.7-0.3,5-0.8s0.7-3.9,0.7-3.9
			l-6.8-5.4H588c0.5-0.2,0.8-0.6,0.8-1.1c0.1-0.5-0.2-0.9-0.6-1.1l0.7-1.1c0.4-0.7-0.5-0.8-1.3-0.8s-2.4-0.1-5.8-0.5
			c-3.1-0.3-46.1-5.2-53.9-5.8c-0.7-0.1-1.1-0.1-1.7-0.2c-1.2-1-1.6-1.2-3.8-1.5c-4.9-0.6-30.5-7.3-48.8-10.9
			c-11.7-2.3-46.6-8.4-46.6-8.4l-9-4c0,0-16-0.2-21.1-1.1c-18.2-3-32.3-5-36.6-5.4c-5.8-0.6-20.3-1.5-33.8-1.8
			c-13.9-0.4-29.1,1.1-40.4,2.7c-4.6,0.7-7.4,1.2-10.7,1.8c-0.3,0.1-1.8,0.3-2,0.4c-9,2.1-11,3.2-11,3.2l-0.6,0.9
			c0,0-17.1,5.5-37.8,14.5c-22.2,9.6-46.4,21.5-54.1,26.4l-5.4,0.3c-11-0.3-21.5,0.1-30.2,1.4c-10.8,1.6-17.8,3.7-17.8,3.7
			s-15.8,2.5-23.5,5.1s-20.5,8.4-20.5,8.4s-11.6,2.9-28.1,9.7S21.2,98.4,20.1,99.4s-0.3,2.6,0,3.2c0.2,0.4,0.5,0.8,0.8,1.1
			c0,0,7,14.3,8.3,16.4s2.3,4.6,2.2,6.2s-0.9,2.6-2.7,3.1s-3.8,0.6-4.2,1.6s-0.1,1.8,0.3,2c0.2,0.1,41.1,8.3,51.8,10.9
			c12.4,3.4,24.9,6.2,25.5,6.3c1.4,0.2,1.6,0,2-0.4l-0.7-8.6c0,0-2.7-17.4-0.9-27c2.3-11.9,5.8-20,15.8-29.3
			c5.5-5.1,15.4-10.3,26.9-11.2c9.4-0.8,20,1.3,28.6,7.2c19.2,13.2,21,28.3,22,38.7c1,10.4-1.4,22.7-1.4,22.7
			c27.5,0.2,102.9,0.8,118.7,0.8c19.4,0.1,94.5,0.6,100.3,0.8s30.9-0.7,30.9-0.7s-3.4-10.6-4-16c-0.6-5.5-0.2-23.1,6.5-33.9
			c8-12.8,18.4-17.8,27.7-20.7c11.3-3.5,24.6-2.4,35.2,2.1c7.5,3.2,16.4,9.8,21.1,17l0.9,1.6c0,0,1.7,5,2.3,7.2
			c3.2,10.6,3,18.8,2.8,25.2c-0.2,5.5-2.8,11-3.8,12.2c-0.3,0.3-1.5,1-1.5,1.6c0.1,2.1,0.2,3.7,0.2,3.7S531.8,143.7,532.2,143.6z"/>
		<circle class="st0" cx="148.7" cy="122.2" r="40.2"/>
		<circle class="st0" cx="488.8" cy="119.8" r="42.8"/>
	</g>
	<path class="st1" d="M47.9,106.4c-1.5-2.7-2.6-4.7-2.8-5.2c-0.3-0.9,0.6-1.6,3.2-1.9S65,97.5,65,97.5c2.6-0.2,5-0.3,6.8,2.4
		c0.6,0.9,4.1,5.6,6.2,9.2c3.9,6.6,7.8,14.6,8.2,15.7c0.6,1.7,0.5,1.4-1.4,2.2s-7,2.6-10.7,2.6s-10.1-0.8-12-1.7
		c-1.9-0.8-8.5-12.4-10.2-15c-0.6-0.9-1.1-1.6-2.1-3.3"/>
	<path class="st1" d="M597.5,92.3c-0.8,0-1.6,0.1-2.4,0.2c-0.3,0.2-0.5,0.5-0.8,0.9c-0.8,1.6-0.9,2.6-2.8,3.1s-14.5,2-16.3,2.4
		s-2.9,1.1-5,4.7c-1.5,2.6-6.5,10.2-11.6,17.3c-0.7,0.9-1.3,1.9-1.9,2.8c-0.9,1.3-2.7,2.7-3.4,3.1c-4.6,2.8-15.8,7.1-15.8,7.1l0,1.7
		l26.4,1"/>
	<path class="st2" d="M331.7,59.4c0.1,0,0.2,0,0.3,0c2,0.1,37.4,5.9,45.2,7.5s12,4.7,17.7,8.2s20.5,15.4,22.1,17.6
		c1.6,2.2-0.4,3.1-4.2,5.9c-3.7,2.7-9.5,6.8-13.2,7.5c-3.2,0.6-7.5,0.8-9.1,0.8c-0.2,0-0.4,0-0.6,0c-0.8-0.1-0.8-0.5-0.3-0.9
		s9.3-8.3,9.8-9.2s0.4-1.9-0.7-2.8c-1.3-1.2-7.8-8.1-20.7-16.1s-18.1-8.2-25.5-9.5s-33.1-6.3-33.4-6.9c-0.2-0.4,0.6-0.5,1.8-0.8
		C322.1,60.4,329.3,59.4,331.7,59.4 M331.7,58.2L331.7,58.2c-2.5,0-9.9,1.1-11,1.3h0c-1.4,0.3-2.2,0.5-2.6,1.2
		c-0.2,0.4-0.2,0.8,0,1.2c0.3,0.6,0.8,0.7,1.9,1c0.7,0.2,1.8,0.4,3.1,0.7c2.4,0.5,5.6,1.2,9.7,2c7.1,1.4,15.5,3,19.4,3.8
		c0.9,0.2,1.7,0.3,2.5,0.4c6.1,1,11.4,1.9,22.6,8.9c10.9,6.9,17.2,12.9,19.6,15.2c0.4,0.4,0.7,0.7,0.9,0.8c0.8,0.7,0.6,1.2,0.5,1.4
		c-0.7,1-8.8,8.3-9.5,8.9c-0.9,0.7-0.8,1.5-0.7,1.8c0.1,0.4,0.5,1,1.6,1.1c0.2,0,0.4,0,0.7,0c1.5,0,5.9-0.2,9.3-0.9
		c3-0.6,7.6-3.1,13.7-7.7c0.5-0.4,1-0.7,1.4-1c2.1-1.5,3.5-2.5,3.7-4c0.1-0.8-0.1-1.6-0.8-2.4c-1.8-2.4-16.6-14.4-22.4-17.9
		c-0.8-0.5-1.6-1-2.4-1.5c-4.7-2.9-8.8-5.5-15.7-6.9c-7.6-1.6-43.1-7.4-45.3-7.5C331.9,58.2,331.8,58.2,331.7,58.2L331.7,58.2z"/>
	<line class="st1" x1="51.4" y1="81.2" x2="58.4" y2="81.2"/>
	<path class="st1" d="M238,56.4c0,0,16.7,0.3,22.2,0.1c5.5-0.2,35.2-3.7,56.4-6.1s51.1-6.8,56.7-8.3s24.5-12.7,24.6-13.3
		s-7.4-4.9-11.3-5.7c0,0-8.7-2-28.9-3.9s-25.1-2.3-34.4-2.5s-19.8-0.2-29,1.5c-9.2,1.8-19.8,4.2-34.3,11.8c-14.6,7.6-15,7.6-15,7.6
		s-12.3,3.4-14.8,5s-4.5,7.2-4.5,7.2l-7.1,4.4c0,0-1.3,0.6-1.6,0.8c-0.8,0.6-0.7,1.3-0.7,2c0,0.6,0.3,1,1.7,1.3
		c2.8,0.7,15.2,1.8,16,1.2S237.3,56.4,238,56.4z"/>
	<path class="st1" d="M110.8,61.9c2.4,0.3,14.7,1.6,15.8,2.2s-0.3,0.8-2.3,1.5s-15.8,5.4-22.3,7.4s-22,7.1-34.1,9.7
		S51.2,86.7,51,86.2s9.6-6,11.4-6.9c1.9-0.9,10.2-4.8,10.2-4.8"/>
	<path class="st1" d="M585.6,55c0.1-0.5,0-1.3-0.3-1.4s-17.8-4.2-19.8-4.2s-20.6,2.7-22.2,3.1s-7.1,3.9-7,4.4s5.9,3,8.1,3.7
		s12.7,3.2,17.1,4.1s3.7,1,9.3,1.5s14.8,1.3,15.5,1.3s0.8-1,0.4-1.6s-3.7-5.4-3.7-5.9S585.6,55,585.6,55z"/>
	<path class="st1" d="M570.5,70.9c1.3,0,3.9,0.7,4.4,1.7c0.4,0.8,1.8,7.8,2.3,11.7c0.1,1.1,0.1,3,0,3.4c-0.3,0.9-0.9,1.6-1.8,2.4
		c-1.2,1-2.8,2.5-4.2,2.8s-2.6,0.3-3.1,0.3s-0.4-0.8-0.2-1.5s1.9-8.1,2.2-11.2S570.5,70.9,570.5,70.9z"/>
	<path class="st1" d="M244.9,37.6c0,0,2-0.4,4.6-0.7c1-0.1,1.2,1.2,1.6,2.5c0.6,2.2,0.9,5,0.8,6.3c-0.1,0.7-0.2,1.8-0.8,4.4
		c-0.6,2.7-1.4,4.1-1.4,4.1l-2.7,1.3l-7,0l-2.2,1"/>
	<path class="st3" d="M261.7,14.8L273,17c0,0-2.4,0.6-15.7,6.9c-12.1,5.8-24.2,12.2-29.4,15c-10.9,6-27.3,16.5-27.3,16.5
		s-1.4-0.1-6.8,0c-2.3,0.1-12.4,0.8-12.4,0.8s-7.1-0.5-11.4-0.7"/>
	<path class="st1" d="M401,17.6c0,0,20.5,4.1,38.4,7.6s64.1,11.7,64.1,11.7l21.5,1.4"/>
	<path class="st1" d="M588,47.3l-3.5-0.3c0,0-0.5,0.4-0.6,0.7s-0.5,0.9,0.4,1.1s3.6,0.8,3.6,0.8"/>
	<path class="st1" d="M589.5,62.1l1.3,0.4c0,0,0.4,0.2,0.8-0.2s1.5-2.3,1.5-2.3h0.6l0.5-0.6"/>
	<path class="st1" d="M537.7,133.6c0,0,0.4-11.1-0.4-20.7c-0.6-7.3-3-14-4.4-17l-1.4-2.8"/>
	<line class="st1" x1="525.6" y1="143.6" x2="531.7" y2="143.6"/>
	<line class="st1" x1="452.4" y1="143.1" x2="443.3" y2="143.3"/>
	<line class="st1" x1="193.4" y1="142.5" x2="183.5" y2="142.5"/>
	<line class="st1" x1="113.5" y1="142.1" x2="103.3" y2="141.6"/>
	<line class="st1" x1="364.6" y1="19.9" x2="359.7" y2="44.5"/>
	<path class="st2" d="M70.2,104.9l2.3,0.2c-2.9,0.4-7.4,1.4-8,1.5c-0.6,0.1-3.8,0.5-5.3,0.7c-1.3,0.2-15.6,2.3-18,2.3
		c-0.3,0-0.4,0-0.3-0.1c2.8-1.7,7.3-2.5,9.7-2.9S70.2,104.9,70.2,104.9 M70.2,103.8L70.2,103.8c-0.8,0.1-17.3,1.2-19.7,1.6l-0.1,0
		c-2.5,0.4-7.1,1.2-10,3.1c-0.5,0.3-0.7,0.8-0.5,1.3c0.1,0.5,0.5,0.8,1,0.8c0.1,0,0.3,0,0.4,0c2.5,0,17.1-2.1,18.2-2.3
		c1.5-0.2,4.6-0.6,5.2-0.7c0.2,0,0.7-0.1,1.7-0.3c1.7-0.4,4.4-0.9,6.3-1.2c0.6-0.1,1.1-0.6,1-1.3c-0.1-0.5-0.5-0.9-1-1L70.2,103.8
		L70.2,103.8L70.2,103.8z"/>
	<path class="st1" d="M103.2,140.8c-3.8-0.3-21.8-1-36.7-2c-11.1-0.7-19.3-1.7-21.7-1.8"/>
	<path class="st1" d="M594,111.6c0.8-1.6,0.8-1.5-1.2-1.6s-6.3-0.8-7.3-0.6s-0.2,1.1-2.7,1s-12.6-0.4-13.8,0.6s-2.3,3.6-3.6,6.5
		s-3.7,10-5.9,11.5c-2.3,1.5-17.2,6-21.4,6.9l-3.9-0.4"/>
	<path class="st1" d="M225.5,49.7c0.8,1.7,1.7,1.9,1.7,1.9s6-1.4,7.2-1.6s1-0.4,1-0.4s1.5-3,1.8-3.6s2.8-3.5,4.5-4.1
		s9.3-2.6,9.3-2.6"/>
	<path class="st1" d="M32.4,134.5c-1.9-1.3-1.6-2.7-0.9-3.3c1.5-1.2,6.5-3.3,6.5-3.3c1.3-0.5,5.1-2.4,5.9-3.2s1.1-1.5,0.6-3.1
		c-0.3-0.8-2.3-6.4-4.3-11.3c-1.9-4.9-3.7-9.2-3.7-9.2l-15.2,2.7"/>
	<line class="st1" x1="216.2" y1="55.7" x2="200.5" y2="55.5"/>
	<polyline class="st1" points="427.2,18.1 415.7,16.8 413.1,15.8 397.3,13.1 	"/>
	<polyline class="st4" points="415.8,16.8 398.2,17 401.7,17.8 	"/>
	<g id="Layer_66_2_">
		<path class="st2" d="M488.5,85.5c18.9,0,34.2,15.3,34.2,34.2s-15.3,34.2-34.2,34.2s-34.2-15.3-34.2-34.2S469.6,85.5,488.5,85.5
			 M488.5,84.4c-19.5,0-35.2,15.8-35.2,35.3c0,19.5,15.8,35.2,35.3,35.2c19.5,0,35.2-15.8,35.2-35.3c0-14.1-8.5-26.9-21.5-32.4
			C497.9,85.3,493.2,84.4,488.5,84.4z"/>
		<path class="st2" d="M490.6,133.8c0.5,0,4.4,0.4,7.9,0.8c0.5,0.2,0.9,0.4,1.4,0.6c1,0.5,6.6,4,7.2,4.4c0.1,0.1,0.2,0.2,0.4,0.3
			l-0.5,0.5c-5.1,4.5-11.6,7-18.4,7l-3.6-0.3l0-0.1c0-0.2,0.1-0.4,0.1-0.6c0.2-0.9,4.1-10.8,4.7-12
			C490.1,133.8,490.4,133.8,490.6,133.8 M490.6,132.7c-0.7,0-1.3,0.3-1.8,1.4s-4.5,11.2-4.8,12.2s-0.6,1.9,0.2,2l4.3,0.3
			c7.1,0,13.9-2.6,19.2-7.3l0.9-0.8c0.7-0.7-0.2-1.4-0.8-1.8s-6.3-3.9-7.3-4.5s-1.7-0.7-1.7-0.7S491.3,132.7,490.6,132.7
			L490.6,132.7z"/>
		<path class="st2" d="M513.5,108l1,2.3c2.4,6.7,2.2,14-0.6,20.5l-0.4,0.9l-0.1-0.1c-0.2-0.1-0.3-0.2-0.5-0.3
			c-0.8-0.5-9-7.3-9.9-8.1c-0.6-0.5-0.5-0.8-0.4-1c0.1-0.4,1.8-4,3.2-7.2c0.3-0.4,0.6-0.8,1-1.1c0.8-0.8,5.9-5.1,6.4-5.5
			C513.2,108.2,513.4,108.1,513.5,108 M513.8,106.7c-0.4,0-1,0.4-1.3,0.7c-0.6,0.4-5.7,4.8-6.5,5.6s-1.2,1.4-1.2,1.4
			s-3.1,6.8-3.3,7.4s-0.1,1.4,0.7,2.2s9.3,7.8,10.1,8.3c0.6,0.3,1.1,0.8,1.5,0.8c0.2,0,0.3-0.1,0.5-0.3l0.7-1.4
			c2.9-6.8,3.1-14.4,0.6-21.4l-1.2-2.7C514.2,106.8,514,106.7,513.8,106.7L513.8,106.7z"/>
		<path class="st2" d="M484.9,91.9L484.9,91.9 M488.5,92c6.3,0,12.4,2.1,17.2,6l1.7,1.5l-0.1,0.1c-0.1,0.1-0.3,0.2-0.5,0.4
			c-0.7,0.6-9.7,6.3-10.8,6.9c-0.2,0.1-0.4,0.2-0.7,0.2c-0.1,0-0.3-0.1-0.4-0.1c-0.4-0.3-3.3-2.9-5.9-5.3c-0.3-0.4-0.5-0.8-0.8-1.3
			c-0.5-1-3-7.2-3.2-7.8c0-0.1-0.1-0.3-0.2-0.4l1.7-0.2C487.3,92,487.9,92,488.5,92 M488.5,90.9c-0.6,0-1.3,0-1.9,0.1l-2.1,0.2
			c-1,0.1-0.6,1.2-0.4,1.9s2.8,6.9,3.3,7.9s0.9,1.5,0.9,1.5s5.5,5,6,5.4c0.3,0.2,0.7,0.4,1,0.4c0.4,0,0.9-0.1,1.2-0.4
			c1-0.6,10.3-6.4,11-7.1s1.6-1.1,1-1.7l-2.2-2C501.3,93.1,495,90.9,488.5,90.9L488.5,90.9z"/>
		<path class="st2" d="M475.2,95.4l0,0.1c0.1,0.2,0.1,0.4,0.2,0.6c0.4,0.8,3,11.2,3.2,12.4c0.2,0.8-0.1,0.9-0.2,1
			c-0.4,0.3-3.8,2.2-6.8,3.9c-0.5,0.1-1,0.3-1.4,0.3c-1.1,0.2-7.7,0.7-8.4,0.7c-0.1,0-0.2,0-0.4,0h-0.1l0.3-1.6
			c1.7-6.8,6-12.7,11.9-16.5L475.2,95.4 M475.5,94.1c-0.1,0-0.2,0-0.3,0.1l-2.3,1.3c-6.1,3.9-10.6,10.1-12.4,17.2l-0.4,2.1
			c-0.2,0.8,0.6,0.9,1.3,0.9c0.1,0,0.3,0,0.4,0c0.7,0,7.4-0.5,8.6-0.7s1.8-0.4,1.8-0.4s6.5-3.6,7-4.1s0.9-1,0.7-2.2
			s-2.9-11.8-3.3-12.7C476.1,94.9,476,94.1,475.5,94.1L475.5,94.1z"/>
		<path class="st2" d="M462.2,124.8c2,0,11.5,0.6,12.6,0.8c0.8,0.1,0.8,0.3,0.9,0.5c0.1,0.4,0.9,4.3,1.6,7.7c0,0.5-0.1,1-0.1,1.5
			c-0.2,1.1-1.8,7.6-2,8.2c0,0.1-0.1,0.3-0.1,0.5l-1.1-0.6c-6.1-3.7-10.5-9.7-12.3-16.6l-0.4-1.9l0.1,0c0.2,0,0.4,0,0.6,0
			C462.1,124.8,462.1,124.8,462.2,124.8 M462.2,123.7c-0.1,0-0.3,0-0.3,0c-1,0.1-2,0-1.8,0.8l0.5,2.5c1.9,7.2,6.5,13.4,12.8,17.3
			l1.5,0.9c0.1,0.1,0.3,0.1,0.4,0.1c0.6,0,0.8-0.9,1-1.5c0.2-0.7,1.8-7.2,2-8.3s0.2-1.8,0.2-1.8s-1.5-7.3-1.7-7.9s-0.7-1.2-1.9-1.3
			C473.9,124.3,464.3,123.7,462.2,123.7L462.2,123.7z"/>
	</g>
	<g id="Layer_65_2_">
		<path class="st2" d="M148.4,88.8c18,0,32.7,14.6,32.7,32.7s-14.6,32.7-32.7,32.7s-32.7-14.6-32.7-32.7S130.3,88.8,148.4,88.8
			 M148.4,87.7c-18.6,0-33.7,15.1-33.6,33.7s15.1,33.7,33.7,33.6s33.7-15.1,33.6-33.7c0-13.5-8.1-25.7-20.6-31
			C157.3,88.6,152.9,87.6,148.4,87.7z"/>
		<path class="st2" d="M150.4,134.9c0.4,0,4.2,0.4,7.5,0.8c0.4,0.1,0.9,0.3,1.3,0.6c1,0.5,6.3,3.8,6.9,4.2c0.1,0.1,0.2,0.1,0.3,0.2
			l-0.5,0.4c-4.8,4.3-11,6.7-17.5,6.7l-3.3-0.2c0,0,0,0,0,0c0-0.2,0.1-0.4,0.1-0.6c0.2-0.9,3.9-10.3,4.5-11.4
			C150,134.9,150.2,134.9,150.4,134.9 M150.4,133.8c-0.7,0-1.3,0.3-1.7,1.3s-4.3,10.7-4.5,11.6s-0.6,1.8,0.2,1.9l4.1,0.3
			c6.7,0,13.3-2.5,18.3-6.9l0.8-0.8c0.7-0.7-0.2-1.3-0.8-1.7s-6-3.7-7-4.3s-1.6-0.7-1.6-0.7S151.1,133.8,150.4,133.8L150.4,133.8z"
			/>
		<path class="st2" d="M172.2,110.3l0.9,2.1c2.3,6.3,2.1,13.3-0.6,19.5l-0.4,0.8l-0.1,0c-0.1-0.1-0.3-0.2-0.5-0.3
			c-0.8-0.5-8.6-6.9-9.5-7.8c-0.5-0.5-0.4-0.7-0.4-0.9c0.1-0.4,1.7-3.8,3.1-6.9c0.3-0.4,0.6-0.7,0.9-1c0.8-0.8,5.6-4.8,6.1-5.2
			C172,110.5,172.1,110.4,172.2,110.3 M172.5,109c-0.4,0-0.9,0.4-1.3,0.7c-0.5,0.4-5.4,4.5-6.2,5.3s-1.1,1.3-1.1,1.3
			s-2.9,6.4-3.2,7.1s-0.1,1.3,0.7,2.1s8.9,7.4,9.7,7.9c0.6,0.3,1.1,0.7,1.4,0.7c0.2,0,0.3-0.1,0.4-0.3l0.6-1.4
			c2.8-6.5,3-13.8,0.6-20.4l-1.1-2.6C172.9,109.1,172.7,109,172.5,109L172.5,109z"/>
		<path class="st2" d="M145,94.9L145,94.9 M148.4,95.1c6,0,11.8,2,16.4,5.7l1.6,1.4l0,0c-0.1,0.1-0.3,0.2-0.4,0.4
			c-0.7,0.6-9.2,6-10.3,6.6c-0.2,0.1-0.4,0.2-0.6,0.2c-0.1,0-0.2,0-0.3-0.1c-0.4-0.3-3.1-2.8-5.6-5c-0.3-0.4-0.5-0.8-0.7-1.2
			c-0.5-1-2.9-6.8-3.1-7.4c0-0.1-0.1-0.2-0.1-0.4l1.5-0.2C147.2,95.1,147.8,95.1,148.4,95.1 M148.4,93.9c-0.6,0-1.2,0-1.8,0.1
			l-2,0.2c-1,0.1-0.6,1.2-0.3,1.8s2.6,6.5,3.1,7.6s0.9,1.5,0.9,1.5s5.2,4.8,5.8,5.2c0.3,0.2,0.6,0.3,1,0.3c0.4,0,0.8-0.1,1.2-0.4
			c1-0.5,9.8-6.1,10.5-6.8s1.6-1.1,1-1.6l-2.1-1.9C160.6,96,154.6,93.9,148.4,93.9L148.4,93.9z"/>
		<path class="st2" d="M135.7,98.3C135.7,98.4,135.7,98.4,135.7,98.3c0.1,0.2,0.2,0.4,0.2,0.6c0.3,0.8,2.9,10.7,3.1,11.8
			c0.1,0.7-0.1,0.8-0.2,0.9c-0.4,0.2-3.6,2.1-6.5,3.8c-0.4,0.1-0.9,0.2-1.4,0.3c-1.1,0.2-7.4,0.6-8,0.7c-0.1,0-0.2,0-0.4,0h0
			l0.3-1.5c1.7-6.5,5.7-12.1,11.3-15.7L135.7,98.3 M136,97c-0.1,0-0.2,0-0.3,0.1l-2.2,1.2c-5.9,3.8-10.1,9.6-11.8,16.4l-0.4,2
			c-0.2,0.8,0.6,0.9,1.2,0.9c0.1,0,0.3,0,0.4,0c0.7,0,7-0.5,8.2-0.7s1.7-0.4,1.7-0.4s6.2-3.5,6.7-3.9s0.9-1,0.6-2.1
			s-2.8-11.2-3.2-12.1C136.6,97.8,136.4,96.9,136,97L136,97z"/>
		<path class="st2" d="M123.3,126.3c1.9,0,11,0.6,12,0.7c0.7,0.1,0.8,0.3,0.8,0.5c0.1,0.4,0.9,4.1,1.6,7.4c0,0.5-0.1,0.9-0.1,1.4
			c-0.2,1.1-1.7,7.2-1.9,7.8c0,0.1-0.1,0.2-0.1,0.4l-1-0.6c-5.8-3.6-10-9.2-11.7-15.8l-0.4-1.8h0.1c0.2,0,0.4,0,0.6,0
			C123.1,126.3,123.2,126.3,123.3,126.3 M123.3,125.2c-0.1,0-0.2,0-0.3,0c-0.9,0.1-1.9,0-1.8,0.8l0.5,2.4
			c1.8,6.9,6.2,12.8,12.2,16.5l1.4,0.8c0.1,0.1,0.3,0.1,0.4,0.1c0.6,0,0.8-0.8,1-1.4c0.2-0.7,1.7-6.8,1.9-8s0.1-1.7,0.1-1.7
			s-1.4-6.9-1.6-7.6s-0.7-1.1-1.8-1.3C134.4,125.8,125.3,125.2,123.3,125.2L123.3,125.2z"/>
	</g>
	<path class="st5" d="M578.1,51.8c-0.7,1-2.8,4.7-2.6,5.7s2.2,4.1,3.7,4.9s5.8,2,6.7,2.3"/>
	<path class="st5" d="M576.2,66.7c0.8-0.6,1.8-1.4,1.6-1.9s-0.6-1-1.7-1.2s-5.9-1.2-7.4-2.1s-4.6-4.6-5-5.1c-0.5-0.6-0.5-1.1-0.2-2
		s2.2-5.1,2.2-5.1"/>
	<path class="st5" d="M564.8,49.3c-1.5,0.7-9,5.3-8.8,6.5s7.9,9,9.3,9.7"/>
	<path class="st2" d="M551.5,57.5c0.2,0,0.5,0.1,0.6,0.3c0.5,0.4,3.7,3.3,4.3,3.9c-1.3-0.2-8.6-1.5-9.8-1.8c-1.2-0.2-5.1-1.7-5.7-2
		c-0.1,0-0.2-0.1-0.2-0.1h0.7l9.9-0.2C551.4,57.5,551.4,57.5,551.5,57.5C551.5,57.5,551.5,57.5,551.5,57.5 M551.5,57.1
		c-0.1,0-0.1,0-0.2,0l-9.9,0.2h-0.8c-0.6,0-0.5,0.6,0.1,0.9s4.5,1.8,5.8,2s9,1.6,9.9,1.8c0.1,0,0.2,0,0.2,0c0.6,0,0.1-0.6,0.1-0.6
		s-3.9-3.5-4.4-4C552.2,57.3,551.8,57.1,551.5,57.1L551.5,57.1z"/>
	<path class="st5" d="M563.5,54.7c0,0,1.7,0.5,3.3,0.7c0.9,0.1,1.7,0.2,2.6,0.2c0.3,0,4.6-4.4,4.6-4.4"/>
	<path class="st5" d="M565.1,58.1c0,0,1.3,0.3,1.7,0.4s1.1,2.4,1.1,2.4"/>
	<path class="st5" d="M575.5,51.7c0,0-4.2,4.1-4.8,4.7s-0.8,1.4-0.4,2.1s4.6,5,4.6,5"/>
	<path class="st5" d="M584,53.7c0,0-3.9,3.2-4.3,3.6s-0.5,0.4-1,0.3s-3.1-0.4-3.1-0.4"/>
	<path class="st5" d="M576.4,58.9c0,0,0.6,0.2,0.8,0.2s0.5,0.4,0.5,0.7s0.1,1.3,0.1,1.3"/>
	<path class="st5" d="M581.9,63.5c-0.1-0.2-1.9-2.4-2.6-3.3c-0.2-0.2-0.2-0.9,0-1.1c0.6-0.7,5.6-5.5,5.6-5.5"/>
	<path class="st5" d="M536.4,56.8c2.5,0.1,19.6-1,19.6-1"/>
	<g id="Layer_55_2_">
		<path class="st5" d="M571.2,71.3c-0.1,0.1-0.2,0.3-0.3,0.4c-0.1,0.1,0,0.2,0.1,0.4s1.8,1.9,1.8,1.9l-1.1,1.1l2.1,2.3"/>
		<path class="st5" d="M567.8,92.1c3.4,0.1,3.7-0.8,4.5-1.3s3.5-2.8,3.7-3c0.2-0.2,0.2-0.6,0.1-0.8c-0.2-0.3-0.9-2.1-0.9-2.1
			s1.4-0.8,1.3-1s-1.5-2.2-1.5-2.2l1.1-1l-1.6-2.2c0,0,1.2-0.8,1.1-1s-1.8-2.2-1.8-2.2l1.1-1.1l-1.9-2.6"/>
		<line class="st5" x1="570.6" y1="74.7" x2="571.7" y2="75.3"/>
		<path class="st5" d="M570.3,88.1V91l0.6,0.2c0,0,0.2,0.8-1,0.9"/>
		<path class="st5" d="M568.4,89.7c0.2,0.2,0.4,0.4,0.6,0.7c0.3,0.5,0.2,0.8,0.2,0.8s1.4,0.2,1.3,0.5"/>
		<polyline class="st5" points="569,87.3 569.1,87.8 571.1,88.4 572.5,87.4 		"/>
		<polyline class="st5" points="569.4,84.6 570.9,85.1 572.3,84.1 		"/>
		<polyline class="st5" points="569.9,81.7 570.3,81.9 571.7,80.9 		"/>
		<polyline class="st5" points="570.5,77.1 571.2,77.8 572.5,78.5 573.8,77.6 574.5,78.5 		"/>
		<polyline class="st5" points="572.5,78.5 574.4,80.7 573.1,81.9 574.8,84.1 573.4,85.1 574.8,87.3 573.4,88.4 573.9,89.7 		"/>
		<polyline class="st5" points="570.3,79.2 571.7,80.9 573.1,81.9 		"/>
		<polyline class="st5" points="570.9,85.1 572.5,87.4 573.4,88.4 		"/>
		<line class="st5" x1="570.3" y1="81.9" x2="573.4" y2="85.1"/>
		<path class="st5" d="M572.5,90.7c-0.1,0-1.4-2.3-1.4-2.3"/>
		<line class="st5" x1="572.8" y1="74.1" x2="573.9" y2="75.4"/>
		<line class="st5" x1="574.4" y1="80.7" x2="575" y2="81.8"/>
		<line class="st5" x1="574.8" y1="84.1" x2="575.2" y2="84.9"/>
		<polyline class="st5" points="574.8,87.3 574.9,88 575.9,88 		"/>
	</g>
	<g id="Layer_59_2_">
		<path class="st5" d="M240,55c-0.7-0.6-3.9-1-5.1-1.2s-2.8-3-2.8-3s-7.1,1.8-13.6,3.8"/>
		<path class="st5" d="M251.3,44.6c0,0-10.8,1.1-11.8,1.3l-1,0.2c0,0,0.5,0.7,1.2,0.8s11.6-1.2,11.6-1.2"/>
		<path class="st5" d="M249.9,53.5c0,0-11.3-0.9-13-0.6s-17.6,3.2-20.7,3.9"/>
		<path class="st5" d="M237.3,46.1c0,0-10.4,3.1-11.3,3.4"/>
	</g>
	<g id="Layer_60_2_">
		<path class="st5" d="M23.9,103.4c0,0,1.6,5.3,3.7,9.8c2.7,5.8,5.9,13.3,5.9,13.3"/>
		<path class="st5" d="M25.9,102.9c0,0,7.5,16.5,7.8,17.2s0.6,1-0.3,1.3c-0.6,0.2-3.1,0.2-3.3,0.3"/>
		<path class="st5" d="M37.9,111.3c0,0-5.6,2.2-6.6,3.6"/>
		<path class="st5" d="M31.1,102.2c0,0-0.2,1.9,0.4,3.1c0.6,1.1,3.6,7,3.6,7"/>
	</g>
	<path class="st5" d="M512.4,140.3c1.8,0.9,1.1,1.6,0.2,2.4c-1.2,1-6.1,6-13.5,8.6c-0.2,0.1-0.5,0-0.5-0.1c0-0.4,0-0.7,0-1.1
		c0-0.2-0.4-0.2-0.6-0.1c-0.2,0.1-0.4,0.2-0.5,0.4c-0.4,0.6-1,1.8-1.2,1.9c-7.1,1.7-14.1,0.5-14.7,0.2c-0.6-0.3-0.8-0.8-0.3-1.9
		c0.8-1.7,5.1-12.4,6.1-15.2c1.3-3.9,1.9-5.7,1.7-6.5c-0.1-0.6-0.2-1.2-0.3-1.9c-0.1-0.9,0-2,0.6-2.3c1.1-0.6,2.7-1.5,2.7-1.5
		s1.3-0.3,1.7-0.1c0.7,0.3,1.5,0.8,1.6,1c0.8,1,1.2,3.1,1.7,4.4c0.8,2.3,0.9,3.7,3.3,5.1S512.4,140.3,512.4,140.3z"/>
	<path class="st5" d="M515.5,103.3c1.4-1.4,1.9-0.6,2.3,0.5c0.6,1.4,3.8,7.6,4,15.5c0,0.2-0.1,0.5-0.3,0.4c-0.3-0.2-0.7-0.3-1-0.3
		c-0.2,0-0.3,0.3-0.3,0.6c0,0.2,0.1,0.4,0.2,0.6c0.4,0.5,1.4,1.5,1.4,1.7c-0.6,7.3-3.9,13.6-4.3,14c-0.4,0.5-1,0.5-1.9-0.3
		c-1.4-1.2-10.2-8.7-12.6-10.5c-3.3-2.4-4.8-3.5-5.7-3.6c-0.6-0.1-1.2-0.1-1.9-0.3c-0.9-0.2-1.9-0.6-2-1.3c-0.2-1.2-0.6-3-0.6-3
		s0.1-1.3,0.4-1.6c0.5-0.6,1.2-1.1,1.4-1.2c1.2-0.5,3.3-0.2,4.7-0.2c2.4-0.1,3.8,0.2,5.9-1.6S515.5,103.3,515.5,103.3z"/>
	<path class="st5" d="M481.2,89c-0.9-1.8,0-1.9,1.2-2c1.5-0.1,8.4-1.3,16,1c0.2,0.1,0.4,0.3,0.3,0.4c-0.2,0.3-0.5,0.6-0.6,0.9
		c-0.1,0.2,0.2,0.4,0.5,0.5c0.2,0.1,0.4,0.1,0.6,0c0.6-0.2,1.9-0.9,2.1-0.8c6.8,2.8,11.7,7.9,12,8.4c0.3,0.6,0.2,1.1-0.9,1.8
		c-1.6,0.9-11.4,7-13.9,8.8c-3.3,2.4-4.9,3.5-5.2,4.3c-0.2,0.6-0.5,1.1-0.8,1.7c-0.4,0.8-1.2,1.6-1.9,1.5c-1.3-0.2-3.1-0.3-3.1-0.3
		s-1.2-0.5-1.4-0.9c-0.4-0.6-0.7-1.5-0.7-1.7c-0.1-1.3,0.8-3.2,1.2-4.5c0.7-2.3,1.4-3.6,0.3-6.1S481.2,89,481.2,89z"/>
	<path class="st5" d="M457,117.1c-2,0.3-1.8-0.6-1.6-1.8c0.4-1.5,1.4-8.4,5.8-14.9c0.1-0.2,0.4-0.3,0.5-0.2c0.2,0.3,0.4,0.6,0.6,0.9
		c0.2,0.2,0.4-0.1,0.6-0.3c0.1-0.2,0.2-0.4,0.2-0.6c0-0.7-0.2-2.1-0.1-2.2c4.7-5.6,11.1-8.7,11.7-8.8c0.6-0.1,1.1,0.2,1.4,1.4
		c0.4,1.8,3.1,13,4,15.9c1.2,3.9,1.8,5.7,2.5,6.3c0.5,0.4,0.9,0.8,1.3,1.3c0.6,0.7,1.2,1.6,0.9,2.2c-0.5,1.2-1.3,2.8-1.3,2.8
		s-0.9,1-1.3,1.1c-0.7,0.2-1.6,0.2-1.9,0.2c-1.3-0.4-2.8-1.8-3.9-2.6c-2-1.4-2.9-2.4-5.7-2.2S457,117.1,457,117.1z"/>
	<path class="st5" d="M476.3,148.9c-0.3,2-1.2,1.6-2.2,0.9c-1.3-0.8-7.5-3.9-12.3-10.1c-0.1-0.2-0.2-0.5,0-0.5
		c0.4-0.1,0.7-0.2,1-0.3c0.2-0.1,0-0.4-0.1-0.6c-0.1-0.2-0.3-0.3-0.5-0.4c-0.6-0.2-2-0.4-2.1-0.6c-3.8-6.2-4.8-13.3-4.8-13.9
		c0.1-0.7,0.5-1,1.8-0.9c1.9,0.2,13.4,1.1,16.4,1.1c4.1,0,6,0,6.7-0.4c0.5-0.3,1.1-0.6,1.7-0.9c0.8-0.4,1.9-0.6,2.4-0.1
		c0.9,0.9,2.3,2.1,2.3,2.1s0.7,1.1,0.6,1.6c0,0.8-0.3,1.6-0.4,1.8c-0.7,1.1-2.6,2.1-3.6,2.9c-1.9,1.5-3.2,2-3.8,4.7
		S476.3,148.9,476.3,148.9z"/>
	<path class="st5" d="M501.8,135.9c-3.8,3.1-8.5,4.8-13.4,4.8c-0.4,0-0.9,0-1.3,0"/>
	<path class="st5" d="M508,112c2,5,1.9,10.7-0.1,15.7"/>
	<path class="st5" d="M487.2,98.8c0.4,0,0.9,0,1.3,0c5,0,9.8,1.8,13.6,5"/>
	<path class="st5" d="M468.2,114.5c1.4-5.3,4.7-9.8,9.4-12.7"/>
	<path class="st5" d="M477.2,137.4c-4.5-2.9-7.7-7.4-9-12.6"/>
	<path class="st2" d="M488.5,116.2c2,0,3.6,1.6,3.6,3.6c0,2-1.6,3.6-3.6,3.6c-2,0-3.6-1.6-3.6-3.6c0,0,0,0,0,0
		C484.9,117.8,486.5,116.2,488.5,116.2 M488.5,115.8c-2.2,0-3.9,1.8-3.9,3.9c0,2.2,1.8,3.9,3.9,3.9c2.2,0,3.9-1.8,3.9-3.9
		c0,0,0,0,0,0C492.4,117.6,490.6,115.8,488.5,115.8z"/>
	<circle class="st5" cx="488.8" cy="111.9" r="1.5"/>
	<circle class="st5" cx="481.1" cy="117" r="1.5"/>
	<circle class="st5" cx="483.6" cy="125.9" r="1.5"/>
	<circle class="st5" cx="492.8" cy="126.2" r="1.5"/>
	<circle class="st5" cx="496" cy="117.6" r="1.5"/>
	<circle class="st5" cx="488.8" cy="119.8" r="40"/>
	<path class="st6" d="M482.9,139.9c-0.9-0.3-1.9-0.6-2.8-1"/>
	<path class="st6" d="M506,131.3c-0.5,0.8-1.1,1.6-1.8,2.3"/>
	<path class="st6" d="M504.9,106.6c0.6,0.8,1.2,1.6,1.6,2.4"/>
	<path class="st6" d="M481.1,100.1c0.9-0.3,1.8-0.6,2.8-0.8"/>
	<path class="st6" d="M467.5,120.7c0-0.3,0-0.6,0-1c0-0.6,0-1.3,0.1-1.9"/>
	<path class="st2" d="M485.8,131.4L485.8,131.4 M485.6,131.6L485.6,131.6c-0.1,0.2-0.5,1.3-0.8,2.1c-0.3,0.8-1.7,4.8-2.7,7.4
		s-1.6,3.9-2.4,4.8c-0.1,0.1-0.2,0.2-0.3,0.2c0-0.1-0.1-0.2-0.2-0.7c0-0.3,0.1-1,0.2-1.5c0-0.2,0.1-0.4,0.1-0.6
		c0.1-0.4,0.5-2.1,0.9-3.6c0.4-1.5,0.8-2.9,0.9-3.4c0.2-0.8,0.5-1.6,1.1-2.2c0.5-0.5,2.5-2,2.5-2l0,0
		C485.2,131.8,485.4,131.7,485.6,131.6 M485.8,131c-0.1,0-0.2,0-0.2,0.1c-0.3,0.2-0.5,0.3-0.8,0.6c0,0-2,1.5-2.6,2
		c-0.6,0.6-1.1,1.5-1.2,2.4c-0.2,1.1-1.7,6.3-1.9,7.1s-0.4,1.8-0.3,2.3c0.1,0.3,0.2,1.1,0.6,1.1c0.2,0,0.3-0.1,0.6-0.4
		c0.9-1,1.5-2.3,2.5-4.9s2.4-6.6,2.7-7.4s0.8-2.1,0.8-2.1S486.1,131,485.8,131L485.8,131z"/>
	<path class="st2" d="M498.8,125.9L498.8,125.9 M498.8,126.1L498.8,126.1c0.2,0.1,1.1,0.9,1.7,1.4c0.7,0.5,4,3.1,6.2,4.8
		s3.2,2.8,3.8,3.8c0.1,0.1,0.1,0.2,0.2,0.3c-0.1,0-0.2,0-0.3,0c-0.2,0-0.3,0-0.5,0c-0.3,0-0.9-0.4-1.4-0.6c-0.2-0.1-0.4-0.2-0.6-0.3
		c-0.4-0.2-1.9-1.2-3.2-2c-1.3-0.9-2.5-1.7-3-1.9c-0.7-0.4-1.3-1-1.7-1.8c-0.4-0.7-1.1-3-1.1-3l0,0
		C498.9,126.6,498.9,126.4,498.8,126.1 M498.6,125.7c-0.1,0-0.2,0.1-0.2,0.4c0.1,0.3,0.2,0.6,0.3,0.9c0,0,0.8,2.4,1.1,3.1
		c0.4,0.8,1.1,1.5,1.9,1.9c1,0.6,5.5,3.6,6.2,4s1.6,0.9,2.1,1c0.2,0,0.4,0,0.5,0.1c0.5,0,0.9-0.2,0.4-0.9c-0.7-1.1-1.8-2.2-3.9-3.9
		s-5.5-4.3-6.2-4.8s-1.7-1.4-1.7-1.4C498.9,125.7,498.7,125.7,498.6,125.7L498.6,125.7z"/>
	<path class="st2" d="M511.3,103.7C511.3,103.7,511.3,103.7,511.3,103.7c0.1,0.1,0,0.3-0.2,0.7c-0.1,0.2-0.6,0.7-1,1.1
		c-0.2,0.2-0.3,0.3-0.5,0.5c-0.3,0.3-1.7,1.4-2.9,2.4c-1.2,1-2.4,1.9-2.8,2.2c-0.6,0.6-1.4,1-2.2,1.1c-0.5,0.1-2,0.1-3.2,0.1h-0.1
		c0,0-0.1,0-0.2,0s-0.3,0-0.5,0l0,0c0.2-0.1,1.2-0.7,1.9-1.2s4.2-2.9,6.5-4.4s3.6-2.2,4.8-2.5C511.1,103.7,511.2,103.7,511.3,103.7
		 M511.3,103.3c-0.1,0-0.3,0-0.4,0.1c-1.3,0.3-2.6,1-4.9,2.5s-5.8,3.9-6.5,4.4s-1.9,1.2-1.9,1.2s-0.7,0.6,0,0.7c0.4,0,0.6,0,0.8,0
		s0.2,0,0.2,0h0c0.3,0,2.5,0,3.2-0.1c0.9-0.1,1.7-0.6,2.4-1.2c0.8-0.8,5.1-4.1,5.7-4.7s1.4-1.3,1.6-1.7
		C511.6,104.2,512.1,103.3,511.3,103.3L511.3,103.3z"/>
	<path class="st2" d="M480.3,93L480.3,93 M480.3,93c0.1,0,0.2,0.1,0.6,0.5c0.2,0.2,0.5,0.8,0.7,1.3c0.1,0.2,0.2,0.4,0.3,0.6
		c0.2,0.4,0.8,2,1.4,3.5c0.6,1.5,1.1,2.8,1.3,3.3c0.4,0.8,0.5,1.6,0.4,2.4c-0.1,0.8-0.9,3.1-0.9,3.1l0,0c-0.1,0.2-0.1,0.4-0.2,0.7
		l0,0c0-0.2-0.3-1.4-0.6-2.2s-1.5-4.9-2.2-7.6s-0.9-4.1-0.9-5.4C480.2,93.2,480.3,93.1,480.3,93 M480.3,92.6c-0.2,0-0.4,0.2-0.4,0.7
		c-0.1,1.3,0.2,2.8,0.9,5.5s1.9,6.7,2.2,7.6s0.6,2.2,0.6,2.2s0.2,0.5,0.4,0.5c0.1,0,0.2-0.1,0.2-0.2c0.1-0.3,0.2-0.6,0.3-0.9
		c0,0,0.8-2.4,0.9-3.2c0.1-0.9,0-1.8-0.4-2.7c-0.5-1-2.3-6.1-2.7-6.8s-0.8-1.7-1.1-2C481,93,480.6,92.6,480.3,92.6L480.3,92.6z"/>
	<path class="st2" d="M471.2,118c0.6,0,1.3,0.1,1.9,0.4c0.7,0.3,2.7,1.8,2.7,1.8l0,0c0.2,0.1,0.4,0.3,0.6,0.4l0,0
		c-0.2,0-1.4-0.1-2.2-0.1h0c-0.9,0-5.1-0.1-7.9-0.3c-2.8-0.1-4.2-0.4-5.4-0.8c-0.1,0-0.2-0.1-0.3-0.2c0-0.1,0.2-0.2,0.6-0.4
		c0.2-0.1,0.9-0.2,1.5-0.3c0.2,0,0.4-0.1,0.7-0.1c0.4-0.1,2.2-0.1,3.8-0.2c1.6-0.1,3-0.1,3.6-0.2C470.8,118,471,118,471.2,118
		 M471.2,117.6c-0.2,0-0.4,0-0.6,0c-1.1,0.1-6.6,0.3-7.3,0.4s-1.9,0.2-2.3,0.4s-1.5,0.8-0.3,1.3s2.7,0.7,5.5,0.9s7,0.3,7.9,0.3h0
		c0.9,0,2.2,0.1,2.2,0.1s1-0.1,0.4-0.5c-0.2-0.2-0.5-0.4-0.8-0.6c0,0-2-1.5-2.7-1.8C472.6,117.7,471.9,117.6,471.2,117.6
		L471.2,117.6z"/>
	<path class="st5" d="M171.2,141.1c1.7,0.9,1.1,1.5,0.2,2.2c-1.1,1-5.8,5.7-12.8,8.2c-0.2,0.1-0.5,0-0.5-0.1c0-0.4,0-0.7,0-1.1
		c0-0.2-0.4-0.2-0.6-0.1c-0.2,0.1-0.4,0.2-0.5,0.3c-0.4,0.5-1,1.7-1.2,1.8c-6.8,1.6-13.5,0.5-14,0.2c-0.6-0.2-0.8-0.8-0.3-1.9
		c0.7-1.6,4.9-11.8,5.8-14.6c1.2-3.7,1.8-5.4,1.6-6.2c-0.1-0.6-0.2-1.2-0.3-1.8c-0.1-0.9,0-1.9,0.6-2.2c1.1-0.6,2.5-1.5,2.5-1.5
		s1.2-0.3,1.6-0.1c0.7,0.3,1.4,0.7,1.5,0.9c0.8,1,1.2,2.9,1.6,4.2c0.8,2.2,0.9,3.5,3.2,4.9S171.2,141.1,171.2,141.1z"/>
	<path class="st5" d="M174.1,105.8c1.4-1.3,1.8-0.5,2.2,0.5c0.6,1.4,3.6,7.3,3.8,14.8c0,0.2-0.1,0.5-0.3,0.4c-0.3-0.1-0.7-0.3-1-0.3
		c-0.2,0-0.3,0.3-0.3,0.5c0,0.2,0.1,0.4,0.2,0.6c0.4,0.5,1.3,1.5,1.3,1.7c-0.5,6.9-3.7,12.9-4.1,13.4c-0.4,0.5-1,0.5-1.9-0.3
		c-1.3-1.2-9.7-8.3-12-10c-3.1-2.3-4.6-3.4-5.4-3.4c-0.6-0.1-1.2-0.1-1.8-0.3c-0.8-0.2-1.8-0.6-1.9-1.2c-0.2-1.2-0.6-2.9-0.6-2.9
		s0.1-1.3,0.4-1.6c0.5-0.6,1.1-1.1,1.4-1.2c1.2-0.5,3.2-0.2,4.5-0.2c2.3-0.1,3.6,0.2,5.6-1.5S174.1,105.8,174.1,105.8z"/>
	<path class="st5" d="M141.4,92.1c-0.8-1.7,0-1.9,1.1-1.9c1.5-0.1,8-1.2,15.2,0.9c0.2,0.1,0.4,0.2,0.3,0.4c-0.2,0.3-0.4,0.5-0.6,0.9
		c-0.1,0.2,0.2,0.4,0.4,0.4c0.2,0.1,0.4,0.1,0.6,0c0.6-0.2,1.8-0.8,2-0.8c6.4,2.6,11.2,7.5,11.4,8c0.3,0.5,0.2,1.1-0.9,1.7
		c-1.5,0.9-10.9,6.7-13.2,8.4c-3.1,2.2-4.6,3.4-4.9,4.1c-0.2,0.6-0.5,1.1-0.8,1.6c-0.4,0.8-1.1,1.5-1.8,1.5
		c-1.2-0.1-2.9-0.3-2.9-0.3s-1.2-0.5-1.4-0.8c-0.4-0.6-0.7-1.4-0.7-1.7c-0.1-1.3,0.8-3.1,1.2-4.3c0.6-2.2,1.3-3.4,0.3-5.8
		S141.4,92.1,141.4,92.1z"/>
	<path class="st5" d="M118.3,119c-1.9,0.3-1.8-0.6-1.5-1.7c0.3-1.4,1.3-8,5.6-14.2c0.1-0.2,0.4-0.3,0.4-0.2c0.2,0.3,0.4,0.6,0.6,0.9
		c0.2,0.2,0.4-0.1,0.6-0.3c0.1-0.2,0.2-0.4,0.2-0.6c0-0.6-0.2-2-0.1-2.1c4.5-5.3,10.6-8.3,11.2-8.4c0.6-0.1,1.1,0.2,1.3,1.3
		c0.4,1.7,3,12.4,3.9,15.2c1.2,3.7,1.8,5.4,2.4,6c0.5,0.4,0.9,0.8,1.3,1.3c0.6,0.6,1.1,1.5,0.8,2.1c-0.5,1.1-1.2,2.7-1.2,2.7
		s-0.8,0.9-1.2,1c-0.7,0.2-1.5,0.2-1.8,0.2c-1.2-0.3-2.7-1.7-3.8-2.4c-1.9-1.3-2.8-2.3-5.4-2.1S118.3,119,118.3,119z"/>
	<path class="st5" d="M136.7,149.3c-0.3,1.9-1.1,1.5-2.1,0.9c-1.3-0.8-7.2-3.8-11.8-9.7c-0.1-0.2-0.2-0.4,0-0.5
		c0.3-0.1,0.7-0.2,1-0.3c0.2-0.1,0-0.4-0.1-0.6c-0.1-0.2-0.3-0.3-0.5-0.4c-0.6-0.2-1.9-0.4-2-0.6c-3.7-5.9-4.6-12.7-4.5-13.2
		c0.1-0.6,0.5-1,1.7-0.8c1.8,0.2,12.8,1,15.6,1c3.9,0,5.7,0,6.4-0.4c0.5-0.3,1-0.6,1.6-0.8c0.8-0.3,1.8-0.6,2.3-0.1
		c0.9,0.8,2.2,2,2.2,2s0.6,1.1,0.6,1.5c0,0.7-0.3,1.5-0.4,1.8c-0.7,1.1-2.4,2-3.5,2.8c-1.8,1.4-3.1,2-3.7,4.5
		S136.7,149.3,136.7,149.3z"/>
	<path class="st6" d="M143.1,140.7c-0.9-0.2-1.8-0.6-2.6-0.9"/>
	<path class="st5" d="M161.1,136.9c-3.6,3-8.1,4.6-12.7,4.6c-0.4,0-0.8,0-1.2,0"/>
	<path class="st6" d="M165.1,132.5c-0.5,0.8-1.1,1.5-1.7,2.2"/>
	<path class="st5" d="M167,114.1c1.9,4.8,1.9,10.2-0.1,14.9"/>
	<path class="st6" d="M164,109c0.6,0.7,1.1,1.5,1.6,2.3"/>
	<path class="st5" d="M147.1,101.5c0.4,0,0.8,0,1.2,0c4.8,0,9.4,1.7,13,4.8"/>
	<path class="st6" d="M141.3,102.7c0.9-0.3,1.8-0.6,2.7-0.8"/>
	<path class="st5" d="M129,116.5c1.3-5,4.5-9.4,8.9-12.1"/>
	<path class="st6" d="M128.4,122.4c0-0.3,0-0.6,0-0.9c0-0.6,0-1.2,0.1-1.8"/>
	<path class="st5" d="M137.6,138.3c-4.3-2.8-7.4-7.1-8.6-12"/>
	<path class="st2" d="M148.4,118.1c1.9,0,3.4,1.5,3.4,3.4s-1.5,3.4-3.4,3.4s-3.4-1.5-3.4-3.4l0,0C145,119.6,146.5,118.1,148.4,118.1
		 M148.4,117.7c-2.1,0-3.8,1.7-3.8,3.8s1.7,3.8,3.8,3.8s3.8-1.7,3.8-3.8l0,0C152.1,119.4,150.4,117.7,148.4,117.7z"/>
	<circle class="st5" cx="148.6" cy="114" r="1.4"/>
	<circle class="st5" cx="141.3" cy="118.9" r="1.4"/>
	<circle class="st5" cx="143.7" cy="127.3" r="1.4"/>
	<circle class="st5" cx="152.5" cy="127.6" r="1.4"/>
	<circle class="st5" cx="155.6" cy="119.4" r="1.4"/>
	<circle class="st5" cx="148.7" cy="122.2" r="37.5"/>
	<path class="st2" d="M145.6,132.8c-0.1,0.3-0.5,1.2-0.8,1.9c-0.2,0.8-1.6,4.6-2.6,7.1s-1.6,3.7-2.3,4.6c-0.1,0.1-0.2,0.2-0.2,0.2
		c0-0.1-0.1-0.2-0.2-0.7c0-0.2,0.1-0.9,0.2-1.4c0-0.2,0.1-0.4,0.1-0.6c0.1-0.4,0.5-2,0.9-3.5c0.4-1.4,0.8-2.8,0.9-3.3
		c0.1-0.8,0.5-1.5,1.1-2.1c0.5-0.5,2.4-1.9,2.4-1.9s0,0,0,0C145.2,133,145.4,132.9,145.6,132.8 M145.8,132.2c-0.1,0-0.2,0-0.2,0.1
		c-0.3,0.2-0.5,0.3-0.8,0.5c0,0-1.9,1.4-2.5,1.9c-0.6,0.6-1,1.4-1.2,2.3c-0.2,1-1.7,6-1.8,6.8s-0.4,1.8-0.3,2.2c0.1,0.3,0.2,1,0.5,1
		c0.1,0,0.3-0.1,0.6-0.4c0.8-1,1.4-2.2,2.4-4.7s2.3-6.3,2.6-7.1s0.8-2,0.8-2S146.1,132.2,145.8,132.2L145.8,132.2z"/>
	<path class="st2" d="M158.3,127.6c0.2,0.2,1,0.9,1.6,1.3c0.7,0.5,3.9,2.9,5.9,4.6s3,2.6,3.7,3.6c0.1,0.1,0.1,0.2,0.1,0.3
		c-0.1,0-0.2,0-0.2,0c-0.2,0-0.3,0-0.5,0c-0.2,0-0.8-0.4-1.3-0.6c-0.2-0.1-0.4-0.2-0.6-0.3c-0.3-0.2-1.8-1.1-3-1.9
		c-1.2-0.8-2.4-1.6-2.9-1.8c-0.7-0.4-1.3-1-1.6-1.7c-0.3-0.6-1.1-2.9-1.1-2.9c0,0,0,0,0,0C158.4,128,158.3,127.8,158.3,127.6
		 M158,127.1c-0.1,0-0.2,0.1-0.2,0.3c0.1,0.3,0.2,0.6,0.3,0.9c0,0,0.7,2.3,1.1,2.9c0.4,0.8,1,1.4,1.8,1.8c0.9,0.5,5.2,3.4,5.9,3.8
		s1.6,0.9,2,0.9c0.2,0,0.3,0,0.5,0c0.5,0,0.9-0.1,0.4-0.9c-0.7-1.1-1.7-2.1-3.8-3.7s-5.2-4.1-5.9-4.6s-1.7-1.3-1.7-1.3
		C158.3,127.2,158.2,127.1,158,127.1L158,127.1z"/>
	<path class="st2" d="M170.1,106.2L170.1,106.2c0,0.1,0,0.3-0.2,0.7c-0.1,0.2-0.6,0.7-1,1.1c-0.2,0.1-0.3,0.3-0.5,0.4
		c-0.3,0.3-1.6,1.3-2.8,2.3c-1.2,0.9-2.2,1.8-2.6,2.2c-0.6,0.6-1.3,0.9-2.1,1c-0.5,0.1-1.9,0.1-3,0.1h-0.1c0,0-0.1,0-0.2,0
		c-0.1,0-0.2,0-0.4,0c0.3-0.2,1.1-0.7,1.8-1.1c0.7-0.5,4-2.8,6.2-4.2s3.4-2.1,4.6-2.4C170,106.2,170.1,106.2,170.1,106.2
		 M170.2,105.8c-0.1,0-0.3,0-0.4,0.1c-1.2,0.3-2.5,1-4.7,2.4s-5.5,3.7-6.2,4.2s-1.8,1.2-1.8,1.2s-0.7,0.6,0,0.6c0.3,0,0.6,0,0.7,0
		s0.2,0,0.2,0h0c0.3,0,2.4,0,3.1-0.1c0.9-0.1,1.7-0.5,2.3-1.1c0.8-0.7,4.9-3.9,5.4-4.4s1.3-1.2,1.5-1.6
		C170.5,106.7,170.9,105.8,170.2,105.8L170.2,105.8z"/>
	<path class="st2" d="M140.6,95.9L140.6,95.9 M140.6,96c0.1,0,0.2,0.1,0.6,0.4c0.2,0.2,0.5,0.8,0.7,1.3c0.1,0.2,0.2,0.4,0.3,0.6
		c0.2,0.3,0.8,1.9,1.3,3.3c0.5,1.4,1,2.7,1.2,3.2c0.3,0.7,0.5,1.5,0.3,2.3c-0.1,0.7-0.8,2.9-0.8,2.9l0,0c-0.1,0.2-0.1,0.4-0.2,0.6
		c-0.1-0.3-0.3-1.3-0.5-2c-0.2-0.8-1.4-4.6-2.1-7.2s-0.9-3.9-0.8-5.1C140.5,96.2,140.5,96.1,140.6,96 M140.5,95.6
		c-0.2,0-0.4,0.2-0.4,0.7c-0.1,1.3,0.1,2.6,0.8,5.2s1.8,6.4,2.1,7.2s0.5,2.1,0.5,2.1s0.2,0.4,0.4,0.4c0.1,0,0.1-0.1,0.2-0.2
		c0.1-0.3,0.2-0.6,0.3-0.9c0,0,0.7-2.2,0.8-3c0.1-0.9,0-1.7-0.4-2.5c-0.4-1-2.2-5.9-2.6-6.5s-0.7-1.6-1-1.9
		C141.2,95.9,140.8,95.6,140.5,95.6L140.5,95.6z"/>
	<path class="st2" d="M131.9,119.8c0.6,0,1.2,0.1,1.8,0.4c0.7,0.3,2.5,1.7,2.5,1.7l0,0c0.2,0.1,0.3,0.2,0.5,0.4
		c-0.3,0-1.3-0.1-2.1-0.1h0c-0.9,0-4.8-0.1-7.5-0.2c-2.7-0.1-4-0.3-5.1-0.8c-0.1,0-0.2-0.1-0.3-0.2c0-0.1,0.2-0.2,0.6-0.4
		c0.2-0.1,0.9-0.2,1.4-0.3c0.2,0,0.4-0.1,0.6-0.1c0.4-0.1,2.1-0.1,3.6-0.2c1.5-0.1,2.9-0.1,3.4-0.2
		C131.5,119.8,131.7,119.8,131.9,119.8 M131.9,119.4c-0.2,0-0.4,0-0.6,0c-1.1,0.1-6.2,0.3-7,0.4s-1.8,0.2-2.2,0.4s-1.4,0.8-0.2,1.2
		s2.6,0.7,5.2,0.8s6.6,0.2,7.5,0.2h0c0.9,0,2.1,0.1,2.1,0.1s0.9-0.1,0.4-0.5c-0.2-0.2-0.5-0.4-0.7-0.6c0,0-1.9-1.4-2.6-1.7
		C133.2,119.5,132.5,119.4,131.9,119.4L131.9,119.4z"/>
	<path class="st5" d="M210.4,119.6c18.4,1.3,44,4,79.9,0.7s123.2-11.5,135-13.2"/>
	<path class="st5" d="M382.5,67.5c9.2-0.6,17.3-1.1,23-1.4c22.2-1.3,48.2-3.5,48.2-3.5"/>
	<path class="st5" d="M194.7,79.9c13.8-1,89.8-6.2,109.5-7.4c9.9-0.6,29.7-1.9,49.8-3.2"/>
	<path class="st5" d="M525.7,38.7c-7.3-0.3-15.2-2.2-43.8,0s-74.1,9.8-91.2,12.1s-30.1,4.9-36.1,5.3"/>
	<path class="st5" d="M101,86.3c-9.5,1-34.1,4-48.7,6.7s-32,6.8-32,6.8"/>
	<path class="st5" d="M97.5,129c-10.2,1.1-23.1,4-48.2,4.4s-17.8,0.3-18.1,0.4"/>
	<path class="st5" d="M559.9,128.5c3.6,0.1,10.5,0.3,10.3,1.4s-7.7,5.3-9.7,5.9"/>
	<path class="st5" d="M567.4,113.7c2.1-0.2,2.3,0,4.2,0.2s1.7,0.6,1.7,0.6s1.4-0.7,2.8-0.4s1.7,0.7,1.7,0.7c0.4,0.2,0.5,0.2,0,1.1
		s-3.1,8-3.5,8.7s-0.1,0.8-2.4,1.1s-3.8-0.5-3.8-0.5s-1.9,0.5-3.1,0.2s-2.2-0.6-2.2-0.6"/>
	<line class="st5" x1="573.3" y1="114.5" x2="568.1" y2="125.1"/>
	<path class="st5" d="M592.8,84.1l1.7,4.9c0,0,0.3,0.7,0,1.3s-2.3,3.6-2.3,3.6c-0.1,0.1-2.5,0.6-3.4,0.8c-8.2,1.3-40.6,3.9-44.5,3.7
		"/>
	<path class="st5" d="M363.1,8.2c-0.8,2.1-0.4,8.6-0.7,11.4"/>
	<path class="st5" d="M386.6,23.1c0.2-1.1-0.1-3,0.7-5.2s3.7-5.2,3.7-5.2"/>
	<path class="st5" d="M275.6,10.4c4.2,0.8,7.8,2,10.4,2.5s2.2,0.2,3.6,1.2s4.2,4.1,4.2,4.1"/>
	<path class="st5" d="M193.4,92.3c0,0-16.6-25.5-43.9-24.5c-22.3,0.9-32.6,7.4-49.1,26.6"/>
	<line class="st5" x1="107.3" y1="71.2" x2="118.9" y2="84.2"/>
	<path class="st5" d="M366.6,22.1l-3.8,19.6c0,0-0.2,0.3,0.4,0.2s6.3-1.3,7-1.5c1.5-0.3,3-0.8,4.4-1.5c1.9-0.9,9.6-4.2,11.1-5
		s6.8-4,7.5-4.5s0.1-0.9-0.1-1.1s-6-3-7.1-3.3s-18.1-3-18.6-3.1S366.7,22,366.6,22.1z"/>
	<path class="st7" d="M449.5,34.9c0,0-51.2-11.3-76.2-14.3"/>
	<path class="st5" d="M592.7,105.8c0,0-11.6-0.5-16-0.2s-5.7,0.2-8.2,5.2"/>
	<path class="st5" d="M367.3,43.3c1.6,3.5,5.7,13.7,6.7,21.8s-0.4,20.5-3,28.2s-5.6,13.7-10.5,18s-14.4,8.7-20.2,11.5
		s-12.8,5.8-18.5,6.3s-27.9,2.2-53.2,3.5s-73.3,3.8-73.3,3.8"/>
	<path class="st5" d="M225.7,115.1c0,0,91.3-17.8,165.4-21.8"/>
	<path class="st5" d="M439.9,134.1c0,0-71.3-1.5-136.2,0c-46.1,1.1-95.8,6.8-108.5,8.2"/>
	<path class="st5" d="M70.6,105.8c2.3,5.8,5.4,13.2,5.9,14.4c0,0,2.3,4.3-1.9,9"/>
	<path class="st5" d="M67.5,97.9c0,0,1.3,3.5,2.5,6.7"/>
	<path class="st5" d="M51.4,108.8c0.5,0.8,0.8,1.5,1.3,2.4c3.9,6.4,10,15,10.2,15.2c0.5,0.4,9.6,1.6,12.8,1.3"/>
	<path class="st5" d="M56.3,100.6l-0.9,2l2.4,2.7c0,0,5.3-0.3,6.3-0.9c0.9-0.4,1.4-0.9,1.4-1.3c0-0.3-0.4-0.6-0.6-0.8
		c-0.7-0.9-2.4-3-2.4-3s-0.4-0.4-0.7-0.4c-2.6,0.3-14.4,1.9-14.7,2c-0.1,0,0.7,2,2.6,5.3"/>
	<line class="st5" x1="50.4" y1="103.4" x2="55.4" y2="102.6"/>
	<line class="st5" x1="69.3" y1="102.7" x2="65.5" y2="103.1"/>
	<path class="st5" d="M61,113.6c0.9-0.1,6.2-0.6,6.5-0.8c0.5-0.2,0.7-0.4,1.2-1c0.2-0.3,0-0.6,0-0.7c-0.3-0.4-0.8-0.9-0.9-1.1
		c-0.4-0.5-0.7-0.9-1-1.2c-0.3-0.4-1.2-0.6-1.2-0.6h-2.3l-0.4-1.1"/>
	<path class="st5" d="M54.8,112c0,0,3.1-0.5,3.5-0.5c0.3-0.1,0.5-0.2,0.6-0.4"/>
	<line class="st5" x1="72.7" y1="111.1" x2="68.8" y2="111.5"/>
	<path class="st5" d="M67.8,112.6c0,0,0.9,1,1.8,2c0.1,0.2,0.7,0.7,0.9,1.1c0.1,0.1,0.2,0.4,0,0.7c-0.4,0.5-0.6,0.8-1.1,1.1
		c-0.3,0.2-6,0.8-6.6,0.8"/>
	<line class="st5" x1="74.6" y1="115.7" x2="70.7" y2="116.1"/>
	<line class="st5" x1="76.6" y1="120.5" x2="72.7" y2="120.8"/>
	<path class="st5" d="M66.2,127.2l-2.4-2.7l0.7-0.7c0,0,0.6-0.6,0.2-0.9"/>
	<path class="st5" d="M71.7,122.2c0,0,1,1.1,1.9,2.1c0.1,0.2,0.7,0.7,0.9,1.1c0.1,0.1-0.1,0.5-0.3,0.7c-0.4,0.5-0.7,0.9-1.2,1.1
		c-0.3,0.2-1.7,0.2-2.6,0.4"/>
	<line class="st5" x1="76.8" y1="125.5" x2="74.6" y2="125.6"/>
	<path class="st5" d="M69.7,117.4c0.7,0.6,1.3,1.3,1.9,2c0.1,0.2,0.7,0.7,0.9,1.1c0.1,0.1,0.2,0.4,0,0.7c-0.5,0.7-0.7,1-1.1,1.2
		c-0.3,0.2-2.3,0.4-3.2,0.4c-2.2,0.2-3.5,0.1-3.5,0.1l-2.7-3l0.7-1.1c0.1-0.3,0.1-0.6-0.1-0.8l-2.5-2.8c0,0,0.5-0.8,0.6-0.9
		s0.3-0.8,0-1.1l-1.8-2.1l1-2l-4.7,0l-0.1-0.7"/>
	<path class="st5" d="M57,115.9c0,0,1.9-0.2,2.4-0.3c0.3,0,0.6-0.2,0.8-0.4"/>
	<path class="st5" d="M58.7,120.5c0,0,2.4-0.3,2.7-0.3s0.7-0.2,0.7-0.2"/>
	<path class="st5" d="M31.9,101.7c0,0,12.9,20.3,12.9,20.8"/>
	<path class="st5" d="M275,16.9c28.6-9.4,77.6-5.9,77.6-5.9s20.7,1.8,45.6,6.3"/>
	<line class="st5" x1="227.2" y1="46" x2="213" y2="55.5"/>
	<path class="st5" d="M423.4,22.5c0,0-42-5.7-61.2-7.9c-9.3-1-14.1-0.9-19.8-1.3c0,0-11-0.8-21.4-0.2c-13.6,0.8-27.8,3.1-30.2,3.6
		c-2,0.5-8.7,1.5-20.4,6.3c-13.1,5.3-31.2,15-34.8,17.5"/>
	<path class="st5" d="M506.6,59.1c0,0,23.3-2.1,29.6-2.2"/>
	<line class="st5" x1="442.6" y1="102.5" x2="402.6" y2="105.3"/>
	<path class="st5" d="M296.6,63.2c0,0-8.4-0.1-18.2-0.7c-18.2-1.1-43.4-3-44.9-3"/>
	<path class="st5" d="M380.7,38.4c0,0,5.5,6.8,6.4,7.9s3,4.1,5.8,4.1"/>
	<path class="st5" d="M534.3,83.7c0,0-14.2-21.2-46.6-20.9c-36.1,0.3-48.2,27.1-48.2,27.1"/>
	<polyline class="st5" points="509.7,74.8 510,73.9 545.3,41.5 	"/>
	<path class="st5" d="M220.2,58.5c0,0-44.8-2.3-49.6-2.5"/>
	<path class="st5" d="M24.9,130.3c3.2-0.2,10.1-1.8,12.6-2.3"/>
	<path class="st5" d="M34.4,92.4c0,0,22.8-7.3,31.1-9.3"/>
	<path class="st5" d="M24.5,97.4c0,0,14.3-10.6,26.2-15.9"/>
	<path class="st5" d="M583.8,48.3l-31.1-5.8c0,0-23.4-3.3-42.2-3.6c-28-0.4-54.6,2.6-57.3,3"/>
	<path class="st5" d="M356.7,45l3.9-18.1c0,0,0.1-1.9-1.1-3.1c-1.3-1.2-3.9-1.7-5.5-1.8c0,0-16.6-1.5-31-2.1
		c-10.1-0.4-19,0.2-20.8,0.3c-2.4,0.1-16.6,3.2-28.3,7.3c-10,3.4-21.1,9.3-22.9,10.2"/>
	<path class="st5" d="M277.2,16.2c0,0-12.6-2.5-14.9-2.6"/>
	<path class="st5" d="M453,35.6c0,0-49.5-12.1-66.5-12.5"/>
	<path class="st5" d="M560.9,136.2c0,0,13.8-3.8,16.5-4.7s4.6-2.5,5.1-3.1c0.5-0.6,7.5-11.2,7.5-11.2"/>
	<path class="st5" d="M585.1,70.9c0,0-9.2-1.5-11-1.6s-3.9-0.6-4,1.6"/>
	<line class="st5" x1="36.5" y1="100.6" x2="48.3" y2="99.2"/>
	<polyline class="st5" points="53.6,105.2 51.7,101.4 56.3,100.6 	"/>
	<path class="st5" d="M62.7,99.5c0,0-0.9,0.2-2.1,0.3c-0.6,0.1-1.1,0.1-1.7,0.3l-1.4,2.5c0,0,1.1,0,3.3,2.4"/>
	<line class="st5" x1="61.8" y1="124.9" x2="63.8" y2="124.5"/>
	<path class="st5" d="M40.1,114.8c0,0-3.6-0.9-3.5,0.4s1,12.8,1,12.8"/>
	<path class="st5" d="M404.2,50.9c-2,1.8-2.8,3.8-2.8,5.7s1.5,5.4,7.8,5.6c5.2,0.2,7.3-2.9,7.9-5.1c0.1-0.4,0.2-1.6,0.2-1.9
		c-0.1-1.4-0.4-3-2.2-4.7c-1-0.9-3.1-1.9-5.3-1.8C407.5,48.9,405.2,50,404.2,50.9z"/>
	<path class="st5" d="M150.7,57.5c0,0-23.2,1.6-34.5,3.7"/>
	<path class="st5" d="M352,129.4c0,0,50.2-14.3,55.2-16"/>
	<path class="st5" d="M587.5,52.2c-1-0.1-17.8-3.8-19.9-4.3s-3-0.3-4.7,0s-18.2,2.8-19.3,3.1"/>
	<path class="st5" d="M121.6,66.4c0.4-0.3,0.3-0.5-0.1-0.7s-2.6-0.9-3.2-0.8s-12.7,3.3-14.1,3.8s-7,5.1-7,5.7"/>
	<path class="st5" d="M74.4,80.8c0,0,0.7-1,0.7-1.3s-6,0.2-6-0.3s0.2-2.1,0.2-2.1"/>
	<path class="st5" d="M112.7,64c0,0-10,2-15.6,4.5c-3.2,1.5-11.5,9-11.5,9"/>
	<path class="st5" d="M118.8,64.9l-12.7-2.1c0,0-35,12.9-43.4,16.7"/>
	<path class="st5" d="M589.4,59.3l1.4-3.7c0,0,0.1-0.4,0.4-0.4h4.7"/>
	<path class="st5" d="M590.3,100.5l-1,5.1l-0.8,1.2c0,0-0.2,0.4,0.1,0.4s0.8,0,0.8,0c0.1,0,0.2,0,0.2-0.1c0.2-0.2,0.4-0.7,0.6-0.9
		c0.2-0.3,0.3-0.9,0.4-1.2s0.8-4.1,0.9-4.4s0-0.6-0.3-0.6c-0.2,0-0.4,0-0.6,0C590.6,99.9,590.4,99.9,590.3,100.5z"/>
	
		<ellipse transform="matrix(9.949340e-02 -0.995 0.995 9.949340e-02 439.9778 678.54)" class="st5" cx="594.9" cy="96.2" rx="1.4" ry="0.3"/>
	<path class="st5" d="M367,67.5c7,2.6,7.1,2.5,17.8,9.7s16.6,13.7,18.6,15.6c1.6,1.5,2.2,3,0.4,4.5s-11.4,9.8-11.4,9.8"/>
	<path class="st5" d="M210.1,135.6c0,0-3.6-20.8-4.9-29.3c0,0-3.1-18.6-2.8-25.6s6.9-19.7,8.1-21.6c0.4-0.6,0.5-1,0.9-1
		c1.4-0.2,4.1-1.8,4.1-1.8"/>
	<line class="st5" x1="566.4" y1="47.6" x2="556.7" y2="43.2"/>
	<line class="st5" x1="82" y1="71.9" x2="86.1" y2="77.1"/>
	<path class="st5" d="M83.7,74.1c0,0-1.5,2.7,0,4.4"/>
	<path class="st5" d="M94.9,75.1c0,0,1.6-2.6,2.7-3.9s-0.6-1.3-0.6-1.3L88,69.6"/>
	<line class="st8" x1="263.4" y1="116.6" x2="420.9" y2="106.3"/>
	<line class="st9" x1="370.9" y1="135.7" x2="202.4" y2="141.6"/>
	<line class="st10" x1="331.8" y1="180.8" x2="597" y2="180.8"/>
	<rect x="596.4" y="177.1" class="st11" width="1.1" height="7.3"/>
	<line class="st10" x1="20.6" y1="180.8" x2="285.4" y2="180.8"/>
	<rect x="20.1" y="177.1" class="st11" width="1.1" height="7.3"/>
	<path class="st11" d="M291.1,178.8v-1.2l1.7-1.3h1v7.5h-1v-6.2L291.1,178.8L291.1,178.8z"/>
	<path class="st11" d="M299.9,178.2c0,0.6-0.3,1.2-1,1.6c0.8,0.4,1.2,1.1,1.2,1.9c0,1.3-1,2.2-2.5,2.2s-2.5-1-2.5-2.2
		c0-0.7,0.4-1.5,1.2-1.9c-0.7-0.4-1-1-1-1.6c0-1.2,1-2,2.3-2S299.9,176.9,299.9,178.2z M297.6,180.3c-0.9,0-1.4,0.6-1.4,1.3
		c0,0.8,0.5,1.3,1.4,1.3s1.4-0.5,1.4-1.3C299,181,298.5,180.3,297.6,180.3z M297.6,179.3c0.8,0,1.2-0.5,1.2-1.1
		c0-0.6-0.5-1.1-1.2-1.1s-1.2,0.4-1.2,1.1C296.4,178.8,296.8,179.3,297.6,179.3L297.6,179.3z"/>
	<path class="st11" d="M301.1,183.4c0-1.6,0.9-2.4,1.7-3.1c0.8-0.6,1.6-1.2,1.6-2.2c0-0.6-0.4-0.9-1.1-0.9c-0.5,0-0.9,0.2-1,0.6
		c-0.1,0.2-0.1,0.4-0.1,0.6v0.2h-1v-0.2c0-0.3,0-0.6,0.1-0.8c0.3-0.8,1.1-1.3,2.1-1.3c1.2,0,2.2,0.7,2.2,1.9c0,1.2-1,2-1.9,2.7
		c-0.6,0.5-1.4,1.1-1.5,1.9h3.4v1h-4.5L301.1,183.4z"/>
	<path class="st11" d="M306.6,183.8v-1.3h1.3v1.3H306.6z"/>
	<path class="st11" d="M310.2,179.4h0.7c1,0,1.4-0.6,1.4-1.2s-0.5-1-1.1-1c-0.8,0-1.2,0.5-1.2,1.1h-1c0-1.1,0.9-2.1,2.3-2.1
		c1.2,0,2.2,0.7,2.2,2c0,0.6-0.3,1.2-1,1.6c0.7,0.3,1.2,1.1,1.2,1.9c0,1.3-1.1,2.2-2.4,2.2c-1.5,0-2.4-0.9-2.4-2.1h1
		c0,0.7,0.5,1.1,1.4,1.1c0.8,0,1.4-0.5,1.4-1.3c0-0.7-0.5-1.2-1.6-1.2h-0.7L310.2,179.4z"/>
	<path class="st11" d="M316.9,176.2h1.1v1.1h-1.1V176.2z M316.9,178.2h1v5.6h-1V178.2z"/>
	<path class="st11" d="M323.7,179.5c0.1,0.3,0.1,0.6,0.1,0.9v3.4h-1v-3.3c0-0.2,0-0.5-0.1-0.7c-0.1-0.4-0.5-0.7-1-0.7
		s-0.9,0.4-1.1,0.8c-0.1,0.2-0.1,0.5-0.1,0.7v3.2h-1v-5.6h0.8l0.1,0.7h0c0.3-0.5,0.8-0.8,1.6-0.8
		C322.8,178.1,323.4,178.6,323.7,179.5z"/>
	<path class="st11" d="M325,183.8v-1.3h1.3v1.3H325z"/>
	<line class="st10" x1="639.6" y1="93.1" x2="639.6" y2="161.2"/>
	<rect x="636" y="160.6" class="st11" width="7.3" height="1.1"/>
	<line class="st10" x1="639.6" y1="7.8" x2="639.6" y2="74.2"/>
	<rect x="636" y="7.2" class="st11" width="7.3" height="1.1"/>
	<path class="st11" d="M627.9,79.9v4.7h1.1v0.9h-1.1v1.9h-1v-1.9h-3.2v-0.9l2.8-4.7L627.9,79.9z M626.9,84.6V81h0l-2.1,3.6H626.9z"
		/>
	<path class="st11" d="M634.4,81.8c0,0.6-0.3,1.2-1,1.7c0.8,0.4,1.2,1.1,1.2,1.8c0,1.3-1,2.2-2.5,2.2s-2.5-1-2.5-2.2
		c0-0.7,0.4-1.5,1.2-1.8c-0.7-0.4-1-1-1-1.7c0-1.2,1-2,2.3-2S634.4,80.6,634.4,81.8z M632.1,84c-0.9,0-1.4,0.6-1.4,1.3
		c0,0.8,0.5,1.3,1.4,1.3s1.4-0.5,1.4-1.3C633.5,84.6,633.1,84,632.1,84z M632.1,83c0.8,0,1.2-0.5,1.2-1.2c0-0.7-0.5-1.1-1.2-1.1
		s-1.2,0.4-1.2,1.1C630.9,82.5,631.4,83,632.1,83L632.1,83z"/>
	<path class="st11" d="M635.6,87.5v-1.3h1.3v1.3L635.6,87.5z"/>
	<path class="st11" d="M642.6,81.8h-1.1c-0.1-0.6-0.5-0.9-1.2-0.9c-0.8,0-1.2,0.6-1.2,1.4v1h0c0.4-0.5,1-0.7,1.6-0.7
		c0.9,0,1.7,0.4,1.9,1.4c0.1,0.3,0.1,0.6,0.1,0.8v0.4c0,0.3,0,0.6-0.1,0.8c-0.3,1-1.2,1.6-2.2,1.6c-1,0-1.9-0.6-2.2-1.5
		c-0.1-0.3-0.1-0.7-0.1-1v-2.8c0-0.3,0-0.6,0.1-0.9c0.3-0.9,1.2-1.5,2.2-1.5C641.5,79.9,642.5,80.6,642.6,81.8z M641.5,85.8
		c0.1-0.2,0.1-0.4,0.1-0.7v-0.2c0-0.2,0-0.4-0.1-0.6c-0.2-0.5-0.5-0.7-1.1-0.7c-0.7,0-1.4,0.6-1.4,1.3c0,0,0,0,0,0.1v0.2
		c0,0.2,0,0.5,0.1,0.7c0.2,0.5,0.6,0.7,1.2,0.7C640.9,86.6,641.3,86.3,641.5,85.8z"/>
	<path class="st11" d="M646.1,79.9h1.1V81h-1.1V79.9z M646.1,81.9h1v5.6h-1V81.9z"/>
	<path class="st11" d="M652.9,83.2c0.1,0.3,0.1,0.6,0.1,0.9v3.4h-1v-3.3c0-0.2,0-0.5-0.1-0.7c-0.2-0.4-0.5-0.7-1-0.7
		s-0.9,0.4-1.1,0.8c-0.1,0.2-0.1,0.5-0.1,0.7v3.2h-1v-5.6h0.8l0.1,0.7h0c0.3-0.5,0.8-0.8,1.6-0.8C652,81.8,652.6,82.3,652.9,83.2z"
		/>
	<path class="st11" d="M654.2,87.5v-1.3h1.3v1.3L654.2,87.5z"/>
</g>
</svg>
